<svg xmlns="http://www.w3.org/2000/svg" width="256" height="256"><path fill-opacity=".016" d="M0 128.004v128.004l128.25-.254 128.25-.254.254-127.75L257.008 0H0v128.004m.485.496c0 70.4.119 99.053.265 63.672.146-35.38.146-92.98 0-128C.604 29.153.485 58.1.485 128.5" fill="#1976D2" fill-rule="evenodd"/><path fill-opacity=".099" d="M14 128v128h227v-47.685l-3.75.607-3.75.608-.287 9.801c-.253 8.628-.492 9.762-2 9.474-1.453-.278-1.756-1.804-1.999-10.067l-.286-9.738h-3.548c-2.394 0-3.41-.406-3.127-1.25.295-.879 3.143-1.25 9.585-1.25h9.165l-.002-103.25L241 0H14v128M16.585 2.906c-1.099 1.215-1.609 3.117-1.405 5.241.278 2.892 1.539 4.263 9.519 10.343 12.298 9.372 15.606 12.723 19.137 19.386 3.07 5.794 3.92 9.195 13.619 54.482 6.042 28.212 7.968 33.28 14.904 39.217 8.119 6.95 7.871 6.925 68.641 6.925h54.5l5-2.304c6.004-2.766 10.017-6.401 12.591-11.405 1.05-2.04 6.183-20.302 11.409-40.582 10.95-42.5 11.287-45.347 6.25-52.776-1.877-2.768-4.94-5.668-7.25-6.863-3.903-2.02-5.526-2.077-66.774-2.342l-62.773-.272-2.477 2.477c-3.02 3.02-3.13 5.466-.403 8.932L93.145 36h61.317c58.003 0 61.439.099 63.584 1.836 1.48 1.199 2.235 2.849 2.173 4.75-.051 1.603-2.605 12.589-5.675 24.414a7389.602 7389.602 0 0 0-9.195 35.784c-3.85 15.217-5.635 18.602-10.985 20.837-4.268 1.784-100.49 2.027-106.817.27-7.039-1.954-12.522-9.666-12.541-17.641L75 104h48.345c45.566 0 48.44-.105 50-1.829 2.58-2.851 2.113-7.665-.98-10.098-2.585-2.034-3.573-2.073-52-2.073-38.798 0-49.376-.268-49.415-1.25-.028-.687-.858-4.963-1.845-9.5L67.312 71h56.344c55.011 0 56.391-.047 58.344-2 2.571-2.571 2.571-7.429 0-10-1.954-1.954-3.333-2-59.87-2H64.26l-2.128-9.122C58.026 30.271 51.939 21.482 34.989 8.687 23.974.372 20.006-.874 16.585 2.906M94.5 151.417C88.158 154.248 84 160.814 84 168c0 13.667 13.934 22.083 26.494 16.003 6.31-3.055 8.895-7.238 9.27-15.003.387-7.986-2.243-13.292-8.284-16.713-4.584-2.596-12.234-2.988-16.98-.87m77 .454c-6.434 3.995-9.5 9.202-9.5 16.129 0 13.78 13.937 22.082 26.698 15.904 12.135-5.874 12.565-24.563.725-31.502-5.193-3.043-13.483-3.289-17.923-.531M33.986 207.81C29.515 211.43 32.515 219 38.42 219c3.134 0 5.863 2.3 5.417 4.566-.305 1.549-1.173 1.912-4.359 1.821-2.188-.062-4.991-.451-6.228-.866-1.703-.571-2.25-.37-2.25.827 0 2.614 4.203 4.085 10.75 3.763 2.99-.147 6.25-3.531 6.25-6.489 0-3.009-2.047-4.73-7.878-6.622-3.432-1.114-4.703-2.07-4.937-3.715-.392-2.758 3.737-4.097 7.436-2.412 3.325 1.515 4.379 1.419 4.379-.398 0-3.419-9.367-4.618-13.014-1.665m21.681-1.143c-1.491 1.49-.48 2.333 2.797 2.333h3.464l.286 9.738c.245 8.346.536 9.787 2.036 10.074 1.573.301 1.75-.684 1.75-9.739V209h3.5c2.444 0 3.5-.452 3.5-1.5 0-1.213-1.593-1.5-8.333-1.5-4.584 0-8.634.3-9 .667m30.574.658c-3.589 1.993-5.574 5.645-5.574 10.253 0 7.141 4.232 11.622 10.977 11.622 9.109 0 14.045-10.641 8.711-18.781-2.702-4.123-9.555-5.626-14.114-3.094m30.074.139c-9.125 3.968-7.644 18.829 2.13 21.376 3.982 1.038 9.055-.016 9.055-1.881 0-1.107-1.045-1.376-4.335-1.115-3.43.273-4.84-.129-6.75-1.924-2.4-2.254-3.179-6.764-1.794-10.375 1.018-2.653 5.73-4.525 9.749-3.872 2.834.46 3.63.257 3.63-.926 0-2.807-6.531-3.525-11.685-1.283M137 217.417c0 9.629.253 11.583 1.5 11.583 1.034 0 1.5-1.038 1.5-3.345 0-2.028.756-4.029 1.919-5.082 1.85-1.674 2.057-1.553 5.714 3.345 3.68 4.929 6.367 6.501 6.367 3.726 0-.746-1.575-3.419-3.5-5.94-1.925-2.521-3.5-4.973-3.5-5.448 0-.475 1.575-2.39 3.5-4.256 3.223-3.124 4.763-6.619 2.57-5.833-.511.183-3.398 2.696-6.416 5.583-3.017 2.887-5.725 5.25-6.018 5.25-.292 0-.667-2.327-.834-5.171-.176-3.015-.823-5.344-1.552-5.584-.952-.313-1.25 2.352-1.25 11.172m40.455-8.962c-1.35 1.35-2.455 3.17-2.455 4.045 0 2.394 4.589 6.5 7.263 6.5 3.267 0 6.026 2.255 5.588 4.566-.454 2.389-6.084 3.182-9.523 1.342-2.593-1.388-3.868-.758-3.007 1.487.76 1.978 6.993 3.615 10.35 2.718 1.482-.397 3.615-1.955 4.741-3.463 1.885-2.525 1.928-2.955.537-5.446-1.047-1.874-2.802-3.018-5.716-3.726-2.313-.562-4.919-1.735-5.791-2.607-1.447-1.447-1.434-1.736.148-3.318 1.699-1.699 3.848-1.706 9.16-.03 3.231 1.02 2.975-1.871-.297-3.362-4.153-1.893-8.3-1.405-10.998 1.294m22.993-1.18c-.289.752-.395 5.835-.236 11.296l.288 9.929 7.349.296c5.667.228 7.25-.001 6.921-1-.258-.782-2.479-1.416-5.599-1.598-5.17-.302-5.171-.303-5.171-3.75 0-3.42.037-3.448 4.5-3.448 3.333 0 4.5-.389 4.5-1.5s-1.167-1.5-4.5-1.5c-4.476 0-4.5-.019-4.5-3.5V209h5.583c4.021 0 5.468-.35 5.171-1.25-.612-1.853-13.612-2.284-14.306-.475M88.364 210.17C81.211 213.633 83.66 226 91.5 226c8.04 0 10.276-12.503 2.843-15.89-2.861-1.303-3.171-1.3-5.979.06M63 248.941c0 .518.445 1.216.989 1.552.566.35.734-.051.393-.941-.665-1.732-1.382-2.049-1.382-.611m16.624.598c-.965 2.514-.681 3.163.498 1.136.584-1.004.851-2.036.593-2.293-.257-.258-.749.263-1.091 1.157m22.201 1.135c.426 2.093.678 2.345.969.97.217-1.021-.043-2.293-.576-2.826-.626-.626-.766.031-.393 1.856m7.333-.674c0 1.375.227 1.938.504 1.25.278-.687.278-1.812 0-2.5-.277-.687-.504-.125-.504 1.25m5.842-1.358c0 .537.7 1.849 1.555 2.917 1.467 1.83 1.487 1.798.365-.559-1.458-3.061-1.92-3.628-1.92-2.358m31.341 1.781c.09 1.649.813 3.099 1.659 3.326 1.003.27 1.119.129.351-.423-.632-.454-1.379-1.951-1.659-3.326-.439-2.153-.487-2.094-.351.423m15.202-1.492c-.665 1.076 1.292 2.567 2.19 1.669.33-.33.049-.6-.625-.6s-.948-.45-.608-1c.34-.55.393-1 .118-1s-.759.419-1.075.931m16.457-.289c0 .537.7 1.849 1.555 2.917 1.467 1.83 1.487 1.798.365-.559-1.458-3.061-1.92-3.628-1.92-2.358m6.374.825c-.309.807-.37 2.044-.134 2.75s.666.045.956-1.467c.566-2.953.099-3.682-.822-1.283m16.799 1.094c.18 1.532 1.002 2.966 1.827 3.188 1.333.358 1.333.284 0-.673-1.07-.767-1.173-1.291-.361-1.826.821-.54.729-1.131-.327-2.112-1.267-1.176-1.422-.982-1.139 1.423m-135.962 2.04c-.71.769-.849 1.399-.309 1.399 1.038 0 2.541-1.902 1.948-2.466-.192-.183-.93.297-1.639 1.067m6.032-.089c1.456 1.589 1.95 1.679 3 .548 1.012-1.09 1.005-1.211-.037-.621-.711.403-2.061.157-3-.548-1.536-1.154-1.532-1.092.037.621m121.772-.821c-.024 1.872 2.04 2.664 3.322 1.275.9-.974.855-1.084-.199-.485-.806.459-1.718.213-2.234-.603-.574-.906-.879-.97-.889-.187m-94.282 1.433c.679.684 1.486.991 1.793.683.308-.308-.247-.867-1.233-1.243-1.425-.542-1.54-.428-.56.56m27.035.044c.582.582 1.647.86 2.369.62.749-.25.295-.703-1.057-1.057-1.663-.435-2.054-.305-1.312.437m61.261-.207c-.809.512-1.211 1.191-.893 1.509.319.318 1.148-.108 1.844-.946 1.443-1.738 1.166-1.902-.951-.563m-95.216.722c.721.289 1.584.253 1.916-.079.332-.332-.258-.568-1.312-.525-1.165.048-1.402.285-.604.604m64 0c.721.289 1.584.253 1.916-.079.332-.332-.258-.568-1.312-.525-1.165.048-1.402.285-.604.604" fill="#1976D2" fill-rule="evenodd"/><path fill-opacity=".195" d="M14 128v128h86.571c78.702 0 86.429-.143 85-1.571-3.367-3.367-.675-8.706 3.011-5.973 1.63 1.209 1.73 1.73.668 3.47-1.509 2.47-1.6 3.408-.25 2.574.55-.34 1-.141 1 .441 0 .718 8.219 1.059 25.5 1.059H241v-46.553l-4 .382-4 .381v9.228c0 9.652-.294 10.77-2.598 9.886-1.064-.408-1.402-2.786-1.402-9.868v-9.329l-3.242-.314c-2.188-.211-3.354-.905-3.587-2.134-.317-1.675.418-1.795 9.244-1.5l9.589.321-.002-103.25L241 0H23.857l9.822 7.343c17.903 13.385 24.402 22.448 28.703 40.025l2.235 9.132 58.044.258c56.652.252 58.087.306 59.858 2.263 2.329 2.574 2.326 7.388-.007 9.966C180.727 70.959 179.54 71 124.345 71c-53.032 0-56.339.103-56.249 1.75.052.963.84 5.125 1.75 9.25l1.654 7.5 50.339.5 50.339.5 1.911 2.361c1.051 1.298 1.911 2.965 1.911 3.703 0 2.666-2.271 6.238-4.657 7.326-1.676.763-17.121 1.11-49.435 1.11H74.909l.668 3.75c.877 4.93 3.907 10.264 7.241 12.75 2.593 1.933 4.47 2.009 56.433 2.275 59.512.305 58.303.425 61.306-6.07C202.362 113.802 220 45.439 220 42.347c0-1.211-1.186-3.135-2.635-4.274-2.6-2.046-3.439-2.073-63.461-2.073H93.078l-2.039-2.189c-2.605-2.796-2.605-6.826 0-9.622L93.078 22l63.211.016 63.211.017 3.953 2.239c2.175 1.232 5.41 4.148 7.189 6.48 4.434 5.814 5.069 11.009 2.556 20.893-11.487 45.174-17.629 68.438-18.84 71.355-2.245 5.409-9.094 11.757-15.113 14.01-5.064 1.894-7.853 1.99-57.967 1.99-60.592 0-60.744-.017-69.384-7.785-2.746-2.469-5.904-6.274-7.016-8.455-1.113-2.181-5.585-20.456-9.939-40.612C50.585 61.991 46.084 43.475 44.935 41c-3.812-8.218-7.23-12.098-17.88-20.295-5.805-4.468-10.886-8.591-11.29-9.164-1.733-2.455-.756-7.403 1.87-9.468L20.27 0H14v128m82.211 22.129c-4.964 1.432-10.68 7.706-12.078 13.259-2.016 8.003 1.8 16.962 8.867 20.82 5.365 2.929 15.512 2.164 20.361-1.534 9.362-7.141 9.891-20.856 1.101-28.573-5.212-4.576-11.449-5.934-18.251-3.972m78 0c-8.412 2.426-14.46 13.464-12.145 22.167C164.429 181.178 170.739 186 180 186c6.644 0 11.501-2.328 15.035-7.207 5.482-7.567 4.708-17.286-1.904-23.897-5.206-5.206-11.713-6.846-18.92-4.767M33 208c-4.351 4.351-1.986 9.281 5.497 11.456 4.132 1.201 5.503 2.065 5.503 3.465 0 2.801-6.996 4.512-8.5 2.079-1.098-1.776-4.68-1.175-4.314.725.82 4.258 10.807 5.401 14.892 1.705 1.998-1.808 2.516-5.944 1.037-8.278-.47-.742-3.276-2.137-6.235-3.101-6.051-1.972-7.439-4.384-3.543-6.159 1.951-.888 3.131-.805 5.53.392 2.505 1.249 3.245 1.287 4.139.209 1.662-2.003-2.622-4.493-7.729-4.493-2.944 0-4.9.623-6.277 2m22.177-.289c.227 1.195 1.416 1.893 3.581 2.102l3.242.314v9.436c0 8.77.141 9.437 2 9.437s2-.667 2-9.44v-9.439l3.75-.311c2.529-.209 3.75-.799 3.75-1.81 0-1.206-1.832-1.557-9.331-1.789-8.507-.263-9.301-.13-8.992 1.5m28.797 1.161c-5.033 5.033-5.18 12.649-.338 17.492 9.299 9.298 23.996-2.507 17.87-14.353-2.15-4.157-5.329-6.011-10.305-6.011-3.462 0-4.944.589-7.227 2.872m29.426.528c-2.827 2.827-3.399 4.134-3.396 7.75.005 5.802 2.859 10.32 7.484 11.846 4.919 1.623 10.512.548 10.512-2.022 0-1.714-.507-1.866-4.42-1.33-3.855.528-4.751.276-7-1.974-3.197-3.196-3.353-7.418-.413-11.155 1.977-2.514 2.588-2.704 7-2.182 4.239.502 4.833.346 4.833-1.273 0-2.25-1.901-3.06-7.182-3.06-3.236 0-4.68.662-7.418 3.4m23.267-2.733c-.367.366-.667 5.493-.667 11.393 0 8.279.32 10.849 1.402 11.264 1.97.756 2.598-.171 2.598-3.836 0-1.822.789-3.892 1.85-4.853 1.756-1.588 1.991-1.472 4.577 2.26 4.156 5.997 6.034 7.46 7.424 5.785.888-1.07.229-2.639-3.005-7.155l-4.142-5.785 4.201-3.879c3.899-3.6 4.599-5.861 1.815-5.861-.639 0-3.763 2.573-6.941 5.719L140 217.437v-5.718c0-4.099-.378-5.719-1.333-5.719-.734 0-1.634.3-2 .667M177 208c-4.114 4.114-1.938 9.483 4.502 11.105 5.467 1.376 7.298 3.226 5.426 5.482-1.317 1.587-4.52 1.546-9.779-.126-1.951-.62-2.29-.43-1.991 1.121.901 4.679 11.615 5.652 15.082 1.37 3.83-4.73 1.417-9.02-6.336-11.265-4.872-1.41-6.201-3.922-2.987-5.642 1.539-.824 2.91-.726 5.604.399 3.221 1.346 3.627 1.334 4.185-.121 1.604-4.179-9.901-6.128-13.706-2.323m23.667-1.333c-.367.366-.667 5.533-.667 11.481 0 12.349-.061 12.274 9.557 11.664 3.744-.237 5.005-.732 5.257-2.062.285-1.497-.473-1.75-5.241-1.75H204v-3.445c0-3.373.094-3.452 4.515-3.75 6.036-.408 6.199-2.227.235-2.61-4.502-.289-4.75-.456-4.75-3.198 0-2.784.197-2.904 5.241-3.195 4.05-.233 5.316-.699 5.573-2.052.291-1.53-.536-1.75-6.574-1.75-3.799 0-7.207.3-7.573.667M86.773 211.75c-2.506 2.855-2.952 5.886-1.408 9.58 2.456 5.879 9.283 6.185 12.198.548C100.435 216.323 97.208 210 91.5 210c-1.786 0-3.866.77-4.727 1.75m-23.106 35.917c-1.218 1.218-.689 3.333.833 3.333.825 0 1.5.498 1.5 1.107s-.675.848-1.5.531c-.825-.316-1.5-.139-1.5.393 0 1.353 2.73 1.214 3.594-.183.391-.633-.118-1.758-1.132-2.5-1.708-1.248-1.715-1.348-.094-1.348.962 0 1.472-.45 1.132-1-.714-1.155-1.875-1.291-2.833-.333m34.751.791c-1.534 1.139-1.696 1.787-.809 3.233 1.535 2.503 4.817 2.327 5.189-.279.443-3.101-1.981-4.736-4.38-2.954m57.274-.757c-2.572.666-1.908 5.67.808 6.094 1.657.259 1.743.132.5-.741-1.27-.892-1.286-1.192-.105-1.953 1.124-.724 1.027-.993-.5-1.384-1.645-.421-1.664-.5-.145-.601.963-.064 1.75-.566 1.75-1.116 0-.55-.113-.948-.25-.884-.137.064-1.064.327-2.058.585m6.26.384c-1.242.815-1.199 1.147.298 2.294.963.738 1.75 1.678 1.75 2.088 0 .411-.787.447-1.75.081-1.351-.515-1.48-.395-.567.526 1.341 1.351 4.317.568 4.317-1.136 0-.619-.988-1.384-2.196-1.7-2.031-.531-2.055-.624-.317-1.234 1.034-.362 1.439-.932.899-1.266-.54-.333-1.635-.177-2.434.347m7.759 2.379c.761 4.008 1.289 4.501 1.289 1.203 0-1.467.45-2.667 1-2.667s1-.354 1-.786c0-.432-.869-.785-1.932-.785-1.612 0-1.837.503-1.357 3.035m-99.407.036c.148 2.268.684 3 2.196 3 1.441 0 2.027-.699 2.096-2.5.089-2.296.063-2.311-.322-.191-.519 2.866-2.474 2.364-3.443-.883-.651-2.184-.704-2.126-.527.574m8.771-.185c-1.437 3.764-1.36 4.167.501 2.622 1.307-1.084 1.732-1.063 2.485.127.77 1.218.911 1.199.924-.123.008-.857-.626-2.432-1.41-3.5-1.375-1.872-1.464-1.841-2.5.874m11.479.435c.083 1.91.704 2.821 2.033 2.982 1.052.128 1.351-.022.663-.333-.687-.311-1.25-1.653-1.25-2.982 0-1.329-.352-2.417-.783-2.417-.431 0-.729 1.238-.663 2.75m18.341-.75c-.243 1.375-.994 2.387-1.669 2.25-.674-.137-1.226.2-1.226.75 0 1.546 2.993 1.181 3.616-.442.304-.792.366-2.255.137-3.25-.321-1.395-.517-1.237-.858.692m5.133-.052c-.637 1.19-.955 2.7-.707 3.357s.924.07 1.502-1.305c.704-1.677 1.071-1.943 1.114-.809.034.93.561 1.999 1.17 2.375.759.469.881-.064.388-1.691-1.116-3.683-2.204-4.287-3.467-1.927M125 251c0 2.479.391 2.98 2.25 2.884 1.693-.087 1.817-.229.5-.573-.963-.252-1.75-.842-1.75-1.311s.787-1.059 1.75-1.311c1.493-.39 1.456-.484-.25-.643l-2-.187 2-.859c1.908-.82 1.897-.863-.25-.93-1.849-.057-2.25.465-2.25 2.93m7.116.25c.064 1.787.324 2.451.578 1.474.542-2.079 3.501-1.897 4.486.276.41.906.707.165.75-1.872.063-3.031-.098-3.234-1.593-2-1.296 1.07-1.755 1.097-2.083.122-.839-2.493-2.251-1.172-2.138 2m13.884-.18c0 2.611.336 3.021 2.25 2.75 1.611-.229 2.34-1.101 2.566-3.07.273-2.368-.04-2.75-2.25-2.75-2.197 0-2.566.441-2.566 3.07m31.028-1.122c-.637 1.19-.955 2.7-.707 3.357s.924.07 1.502-1.305c.704-1.677 1.071-1.943 1.114-.809.034.93.561 1.999 1.17 2.375.759.469.881-.064.388-1.691-1.116-3.683-2.204-4.287-3.467-1.927M193.404 251c.069 1.801.655 2.5 2.096 2.5 1.512 0 2.048-.732 2.196-3 .177-2.7.124-2.758-.527-.574-.969 3.247-2.924 3.749-3.443.883-.385-2.12-.411-2.105-.322.191m7.596 0c0 2.479.391 2.98 2.25 2.884 1.693-.087 1.817-.229.5-.573-2.001-.523-2.383-2.303-.5-2.326.894-.011.853-.267-.145-.899-1.121-.71-1.023-.979.5-1.369 1.606-.411 1.552-.503-.355-.601-1.859-.096-2.25.405-2.25 2.884m-102.554-.913c-.369.598-.21 1.549.354 2.113 1.262 1.262 3.2.196 3.2-1.759 0-1.684-2.574-1.94-3.554-.354M147 251c0 1.111.667 2 1.5 2s1.5-.889 1.5-2-.667-2-1.5-2-1.5.889-1.5 2m38.173-.341c.421 2.189 3.327 2.498 3.327.355 0-.818-.828-1.646-1.841-1.841-1.336-.257-1.743.15-1.486 1.486" fill="#1976D2" fill-rule="evenodd"/><path fill-opacity=".225" d="M14.03 2.75c.026 2.318.188 2.48 1.032 1.032.551-.945 1.775-2.169 2.72-2.72C19.23.218 19.068.056 16.75.03c-2.348-.026-2.746.372-2.72 2.72m21.897 5.827c16.611 12.78 22.4 21.044 26.527 37.87l2.22 9.053 57.413.5c31.577.275 58.14.862 59.028 1.305 1.759.877 3.885 4.882 3.885 7.319 0 .841-1.315 2.845-2.923 4.453L179.154 72h-55.546c-43.979 0-55.464.26-55.153 1.25.216.688 1.133 4.737 2.037 9L72.136 90h99.515l2.175 2.314c2.683 2.857 2.786 6.708.263 9.825l-1.911 2.361-48.45.5-48.45.5 1.227 4.833c1.531 6.026 4.143 9.66 8.566 11.915 3.135 1.599 7.881 1.748 55.429 1.736 55.462-.014 54.942.03 58.674-4.999 1.081-1.458 5.905-18.16 11.474-39.73 9.245-35.808 9.546-37.31 7.957-39.735L216.954 37h-61.342c-60.544 0-61.377-.027-63.977-2.073-3.722-2.927-3.722-8.927 0-11.854 2.602-2.047 3.402-2.072 63.75-2.029 65.692.047 65.051 0 71.983 5.287C231.561 29.53 235 36.661 235 42.158c0 4.149-17.752 74.927-20.344 81.113-2.004 4.783-6.276 9.421-11.511 12.499l-4.645 2.73h-116l-5.364-2.971c-5.811-3.219-11.219-9.091-13.583-14.748-.819-1.961-4.665-18.351-8.546-36.423-3.881-18.072-7.76-35.333-8.62-38.358-2.986-10.501-7.097-15.573-21.542-26.575-5.31-4.045-9.887-7.932-10.171-8.639-.284-.708-.552 54.177-.595 121.964L14 256h85.5c88.274 0 88.107.007 84.407-3.693-1.362-1.362.5-5.307 2.506-5.307 2.061 0 3.883 2.759 3.299 4.995-.289 1.103-.09 2.005.441 2.005s.687.45.347 1c-.406.657 8.156 1 24.941 1H241v-46.598l-3.465.404-3.465.405-.285 9.644c-.262 8.883-.443 9.645-2.285 9.645-1.843 0-2.022-.762-2.286-9.692l-.285-9.692-3.715-.308c-2.498-.207-3.714-.799-3.714-1.808 0-1.211 1.877-1.555 9.75-1.786l9.75-.286V0H24.78l11.147 8.577M94.5 150.516c-15.377 8.289-14.956 28.382.732 34.936 4.848 2.026 9.338 1.926 14.277-.317 13.991-6.356 15.484-24.434 2.738-33.168-4.447-3.047-13.425-3.781-17.747-1.451m78 0c-15.377 8.289-14.956 28.382.732 34.936 4.848 2.026 9.338 1.926 14.277-.317 13.991-6.356 15.484-24.434 2.738-33.168-4.447-3.047-13.425-3.781-17.747-1.451M36 205.709c-3.126 1.15-5 3.695-5 6.791 0 3.835 2.382 6.239 7.066 7.129 6.069 1.153 7.654 3.63 3.525 5.511-1.885.86-3.121.742-5.694-.541-2.799-1.397-3.49-1.434-4.67-.254-3.598 3.597 9.491 7.727 13.86 4.373 5.591-4.292 4.133-10.302-3.089-12.732-6.003-2.02-7.021-2.763-6.312-4.61.579-1.51 2.126-1.544 9.776-.216 1.249.216 2.094-.302 2.327-1.429.598-2.899-7.411-5.631-11.789-4.022m50.449.842c-5.904 2.914-8.231 11.103-4.955 17.438C83.609 228.079 86.807 230 91.5 230c4.693 0 7.891-1.921 10.006-6.011 3.317-6.415.918-14.611-5.113-17.473-3.978-1.888-6.063-1.88-9.944.035m31.809-.881c-3.389.706-7.938 5.81-8.674 9.735-.821 4.374 1.214 9.505 4.93 12.427 4.97 3.91 17.067 1.983 13.621-2.17-.958-1.153-1.904-1.32-3.675-.647-3.534 1.344-8.118-.597-9.279-3.927-2.36-6.769 1.743-11.783 8.683-10.611 2.574.435 4.18.261 4.652-.502 1.655-2.678-4.886-5.423-10.258-4.305m28.626 4.959-5.384 5.464-.5-4.796c-.42-4.03-.86-4.848-2.75-5.117-2.222-.315-2.25-.177-2.25 11.282 0 9.714.26 11.701 1.601 12.215 2.038.782 3.364-1.303 3.384-5.32.025-5.181 2.55-4.928 6.732.673 2.04 2.734 4.303 4.97 5.028 4.97 2.931 0 2.33-3.219-1.564-8.377l-4.042-5.353 3.931-3.838c4.132-4.035 4.831-5.872 2.564-6.742-.786-.302-3.651 1.794-6.75 4.939M180 205.664c-3.18 1.266-5 3.755-5 6.836 0 3.92 2.533 6.388 7.36 7.171 4.847.787 6.75 3.044 4.161 4.937-2.481 1.815-4.552 1.759-7.345-.197-1.248-.874-2.923-1.338-3.722-1.032-2.397.92-1.649 3.469 1.496 5.095 7.002 3.621 15.05.4 15.05-6.024 0-3.784-2.214-5.778-7.681-6.916-3.523-.734-5.841-2.881-4.846-4.49.858-1.389 4.816-1.325 8.007.129 1.974.899 2.85.897 3.758-.011 2.754-2.754-6.617-7.339-11.238-5.498M54.5 207c-1.103 1.785.541 3 4.059 3H62v9.441c0 9.585.819 11.784 3.544 9.523 1.073-.891 1.456-3.526 1.456-10.023v-8.814l3.242-.314c2.135-.206 3.355-.91 3.573-2.063.297-1.567-.662-1.75-9.183-1.75-5.264 0-9.79.447-10.132 1m145.718 10.707.282 11.793 6.91.299c4.773.207 7.153-.092 7.693-.966 1.388-2.245-1.191-3.833-6.225-3.833-4.507 0-4.878-.186-4.878-2.445 0-2.208.461-2.475 4.75-2.75 3.982-.256 4.75-.628 4.75-2.305s-.768-2.049-4.75-2.305c-4.26-.273-4.75-.552-4.75-2.7 0-2.214.434-2.418 5.75-2.695 4.311-.225 5.75-.675 5.75-1.8 0-1.18-1.661-1.562-7.782-1.793l-7.782-.292.282 11.792M87 212c-4.261 4.261-1.314 13.25 4.344 13.25 4.074 0 6.656-2.873 6.656-7.405 0-4.523-2.753-7.845-6.5-7.845-1.375 0-3.4.9-4.5 2m-23.826 36.226c-.968.968-.747 1.613 1.05 3.063l2.276 1.836-2.5-.675c-1.931-.521-2.24-.4-1.356.531 1.38 1.456 4.529 1.005 5.107-.732.229-.688-.634-1.672-1.917-2.187-1.732-.694-1.883-.952-.584-.999.963-.034 1.75-.513 1.75-1.063 0-1.39-2.348-1.252-3.826.226m7.005 1.921c.247 2.577.833 3.426 2.536 3.668 1.684.239 2.373-.317 2.876-2.323.381-1.517.184-3.117-.464-3.765-.836-.836-1.127-.445-1.127 1.514 0 1.453-.45 2.919-1 3.259-.565.349-1-.47-1-1.882 0-1.375-.482-2.798-1.071-3.162-.701-.433-.96.497-.75 2.691m8.982-.6c-1.652 3.625-1.509 3.94 1.841 4.059 1.649.059 2.998-.076 2.998-.299 0-.649-3.019-6.307-3.365-6.307-.173 0-.836 1.146-1.474 2.547m11.589-1.976c-.412.419-.75 2.037-.75 3.596 0 2.373.416 2.833 2.559 2.833 1.479 0 2.294-.429 1.931-1.016-.346-.559-1.018-.776-1.494-.481-.477.294-1.008-.867-1.181-2.58-.173-1.713-.653-2.771-1.065-2.352m7.29.881c-1.726 2.079-.875 4.997 1.558 5.346 2.993.43 4.839-2.113 3.436-4.734-1.292-2.415-3.294-2.66-4.994-.612m10.627-.785c-.367.366-.667 1.743-.667 3.059 0 1.34-.44 2.12-1 1.774-.55-.34-1-.141-1 .441s.9 1.059 2 1.059c1.619 0 2-.667 2-3.5 0-3.597-.182-3.984-1.333-2.833m5.976.102c-.321.518-1.001 2.043-1.512 3.387-.869 2.285-.715 2.444 2.357 2.444 3.138 0 3.238-.115 2.21-2.55-1.454-3.44-2.357-4.41-3.055-3.281M125 250.5c0 3.18.252 3.489 2.75 3.384 1.692-.071 2.077-.292 1-.573-2.001-.523-2.383-2.303-.5-2.326.833-.011.75-.339-.25-.985-1-.646-1.083-.974-.25-.985.688-.008 1.25-.465 1.25-1.015 0-.55-.9-1-2-1-1.619 0-2 .667-2 3.5m7-.155c0 4.101.41 4.388 2.821 1.976 1.572-1.571 1.7-1.571 2.002 0 .543 2.817 2.177 1.869 2.177-1.262 0-3.361-1.484-4.846-2.416-2.417-.569 1.482-.805 1.468-2.605-.161-1.938-1.754-1.979-1.715-1.979 1.864m14 .155c0 3.041.319 3.5 2.433 3.5 1.573 0 2.662-.723 3.082-2.048.782-2.462-1.048-4.952-3.637-4.952-1.48 0-1.878.743-1.878 3.5m8 0c0 3.18.252 3.489 2.75 3.384 1.692-.071 2.077-.292 1-.573-2.001-.523-2.383-2.303-.5-2.326.833-.011.75-.339-.25-.985-1.282-.828-1.246-.972.25-.985.963-.008 1.75-.465 1.75-1.015 0-.55-1.125-1-2.5-1-2.19 0-2.5.433-2.5 3.5m7.343-1.952c-.342.891.203 2.166 1.282 3.002 1.635 1.269 1.651 1.377.125.845-.98-.341-1.75-.122-1.75.498 0 1.463 3.684 1.428 4.594-.045.391-.633-.118-1.758-1.132-2.5-1.708-1.248-1.715-1.348-.094-1.348.962 0 1.472-.45 1.132-1-.944-1.527-3.489-1.191-4.157.548M168 248c0 .55.45 1 1 1s1 1.125 1 2.5.45 2.5 1 2.5 1-1.125 1-2.5.477-2.5 1.059-2.5.781-.45.441-1-1.716-1-3.059-1c-1.343 0-2.441.45-2.441 1m9.643-.231c-.321.518-1.001 2.043-1.512 3.387-.869 2.285-.715 2.444 2.357 2.444 3.138 0 3.238-.115 2.21-2.55-1.454-3.44-2.357-4.41-3.055-3.281m15.012.038c-.464.719-.56 2.435-.214 3.815.472 1.88 1.184 2.429 2.844 2.193 1.703-.242 2.289-1.091 2.536-3.668.21-2.194-.049-3.124-.75-2.691-.589.364-1.071 1.85-1.071 3.303 0 3.22-1.681 1.856-2.167-1.759-.239-1.781-.578-2.124-1.178-1.193M201 250.5c0 2.968.342 3.498 2.25 3.485 1.827-.013 1.968-.201.75-1-1.27-.834-1.286-1.123-.105-1.884 1.124-.724 1.027-.993-.5-1.384-1.645-.421-1.664-.5-.145-.601 2.437-.162 2.206-2.116-.25-2.116-1.619 0-2 .667-2 3.5m-101.846-.062c.191.917.796 1.644 1.346 1.615 1.484-.079 1.212-2.316-.346-2.835-.841-.28-1.215.177-1 1.22m48.023.115c.452 2.172 2.227 2.305 2.633.197.21-1.095-.28-1.75-1.31-1.75-.961 0-1.512.647-1.323 1.553M185.5 250c-.816 1.32.38 3.192 1.569 2.457 1.215-.75 1.207-3.457-.01-3.457-.518 0-1.219.45-1.559 1" fill="#1976D2" fill-rule="evenodd"/></svg>