<svg xmlns="http://www.w3.org/2000/svg" width="256" height="256"><path fill-opacity=".016" d="M0 128.004v128.004l128.25-.254 128.25-.254.254-127.75L257.008 0H0v128.004m.485.496c0 70.4.119 99.053.265 63.672.146-35.38.146-92.98 0-128C.604 29.153.485 58.1.485 128.5" fill="#1976D2" fill-rule="evenodd"/><path fill-opacity=".362" d="M52.556 3.254 43.611 6.3l-1.427-2.15c-1.796-2.704-4.16-2.725-20.691-.187C2.709 6.846 1.009 9.308 7.027 24.914c4.74 12.292 11.189 20.636 20.487 26.51 8.578 5.419 17.713 9.515 21.302 9.552 4.389.045 5.959-1.791 8.733-10.215 1.496-4.544 2.949-8.66 3.229-9.149.281-.488 1.482 2.437 2.669 6.5 2.991 10.237 5.144 14.321 10.228 19.406 4.95 4.949 17.628 12.904 28.776 18.055 7.035 3.25 7.548 3.707 8.63 7.691.655 2.41.922 7.313.621 11.374-.378 5.082-.124 7.922.882 9.86 1.369 2.64 1.127 3.151-7.985 16.862-15.193 22.86-25.337 42.551-34.723 67.404-2.132 5.644-3.876 10.482-3.876 10.75 0 .267 3.402.486 7.559.486 4.785 0 7.332.367 6.941 1-.34.55-1.698 1-3.017 1-2.298 0-2.411.323-2.691 7.67-.191 5.027-.723 7.812-1.542 8.083-.931.308-1.25-1.649-1.25-7.67V212h-3.496c-3.433 0-3.527.112-5.218 6.194-1.397 5.025-1.83 5.736-2.296 3.766-.55-2.334-2.204-3.505-8.296-5.876-4.231-1.647-2.296-3.438 2.938-2.721 3.195.438 4.368.255 4.368-.682 0-2.288-2.32-3.681-6.129-3.681-4.708 0-7.077 2.254-6.675 6.353.261 2.662.937 3.335 4.76 4.742 2.451.902 4.625 2.149 4.833 2.772.608 1.825-2.832 2.555-6.145 1.305-1.931-.729-3.411-.805-4.01-.206-1.489 1.489 1.137 3.9 5.049 4.634 2.727.512 4.146.163 6.542-1.608l3.06-2.262-.708 2.885c-1.392 5.677-6.157 12.73-9.918 14.682-4.508 2.34-4.598 3.893-.409 7.054C55.116 253.023 60.671 255 66.122 255c6.139 0 8.11-1.834 10.369-9.65.93-3.217 3.511-9.359 5.736-13.647l4.045-7.797 2.22 2.087c1.222 1.147 3.773 2.338 5.67 2.646 4.445.721 9.475-3.188 10.392-8.078.743-3.958-1.509-8.947-4.814-10.667-1.232-.641-2.358-1.26-2.502-1.375-.145-.116 1.946-4.892 4.646-10.615 2.7-5.722 5.665-13.91 6.59-18.195 1.473-6.828 2.444-8.786 7.853-15.838 3.395-4.425 7.593-10.073 9.329-12.551l3.156-4.505.626 7.843c1.471 18.45 5.371 29.455 12.644 35.68 8.036 6.879 16.748 6.627 26.832-.775 9.6-7.047 16.305-16.855 24.122-35.282 5.063-11.936 6.262-13.683 10.493-15.292 2.293-.872 2.582-1.414 1.998-3.754-1.621-6.497-8.509-11.899-13.032-10.22-2.006.745-11.308 10.023-24.1 24.04l-6.895 7.555-.67-12.555c-.489-9.172-1.39-14.98-3.343-21.555-1.471-4.95-2.807-10.623-2.969-12.608-.162-1.984-.795-4.542-1.407-5.684-.611-1.142-1.111-5.697-1.111-10.122v-8.045l4.25-2.138c9.218-4.636 20.845-12.174 24.963-16.184 4.998-4.868 7.319-9.269 10.34-19.607 1.187-4.063 2.388-6.988 2.669-6.5.28.489 1.733 4.605 3.229 9.149 1.792 5.44 3.421 8.635 4.772 9.358 4.21 2.254 13.547-1.087 26.457-9.465 5.733-3.721 8.182-6.16 12.158-12.103 5.625-8.411 9.196-16.918 9.886-23.551.698-6.71-1.899-8.7-13.847-10.605-5.157-.822-12.25-1.764-15.761-2.093-5.844-.547-6.531-.404-8.109 1.689l-1.725 2.287-9.515-3.139C190.582-.551 189.417-.647 188 2c-.589 1.1-1.864 2-2.835 2C183.183 4 175 9.017 175 10.232c0 .432 2.531-.643 5.624-2.389 5.18-2.923 5.53-2.998 4.435-.953-.654 1.222-.992 2.758-.751 3.415s-.473 2.196-1.586 3.42l-2.023 2.224-4.733-3.474C173.362 10.564 170.211 9 168.963 9c-3.033 0-25.774 18.398-26.547 21.477-.318 1.269.104 3.627.938 5.24 1.775 3.433 13.802 14.941 17.262 16.518 1.311.597 2.383 1.351 2.382 1.676-.005 1.768-16.338 9.834-23.221 11.468-2.19.519-2.608.344-2.133-.894.325-.847 1.438-1.994 2.474-2.548 2.667-1.427 2.335-4.563-.931-8.793-1.547-2.004-4.107-5.735-5.689-8.29-3.425-5.532-6.498-7.464-12.304-7.738-3.71-.176-4.783.273-7.75 3.24C111.55 42.25 110 44.708 110 45.817s-.9 4.117-2 6.683c-2.411 5.626-2.472 6.885-.429 8.929 2.23 2.229 1.116 1.968-5.377-1.259C95.231 56.71 92 54.72 92 53.892c0-.344 1.822-1.832 4.048-3.305 6.426-4.253 11.853-9.562 14.646-14.329l2.584-4.408-1.969-2.675c-2.865-3.893-23.17-20.178-25.137-20.16-.92.009-2.277.399-3.018.868-.89.565-3.038-.286-6.35-2.515C74.051 5.516 70.96 4 69.935 4 68.909 4 67.589 3.1 67 2 65.597-.621 63.365-.427 52.556 3.254m6.694-.034c-2.58 1.245-2.948 2.447-.75 2.447.825 0 1.5-.402 1.5-.893 0-.49.45-.614 1-.274.55.34 1 .115 1-.5s.45-.84 1-.5c.55.34 1 .141 1-.441 0-1.318-1.81-1.256-4.75.161M191 3.059c0 .582.45.781 1 .441s1-.115 1 .5.45.84 1 .5c.55-.34 1-.216 1 .274 0 .491.675.893 1.5.893 2.295 0 1.788-1.215-1.047-2.506C192.29 1.719 191 1.69 191 3.059M49.06 6.395c-3.99 1.442-4.587 2.502-2.791 4.958 1.192 1.63 1.557 1.447 4.56-2.29 3.526-4.388 3.423-4.544-1.769-2.668m20.994.706c.605 1.13.873 2.647.595 3.371-.277.723.545 2.301 1.828 3.507 2.238 2.102 2.439 2.122 4.928.491C78.832 13.535 80 12.432 80 12.018c0-.845-6.548-5.305-9.273-6.316-1.526-.565-1.62-.371-.673 1.399m134.042 1.758c3.049 3.664 3.534 3.917 4.654 2.425 2.226-2.967 1.744-3.459-5.654-5.767-2.25-.702-2.186-.488 1 3.342M65.643 7.511c.416 1.085.122 1.336-1.043.889-1.197-.459-1.46-.2-1.004.989C64.331 11.304 69 11.573 69 9.7 69 8.276 67.051 6 65.831 6c-.422 0-.507.68-.188 1.511M187.2 7.2c-.66.66-1.2 1.815-1.2 2.566 0 1.823 5.186 1.22 5.809-.675.328-.996-.049-1.213-1.284-.739-1.291.496-1.596.276-1.168-.841.695-1.81-.487-1.981-2.157-.311M51.078 11.157c-3.261 3.924-3.334 4.182-1.559 5.481 2.674 1.955 4.071 1.699 6.317-1.157 1.437-1.827 1.785-3.25 1.268-5.184-1.044-3.902-2.207-3.736-6.026.86m147.109-1.263c-.871 2.497-.644 3.321 1.652 5.998 2.648 3.088 2.673 3.094 5.063 1.236l2.403-1.866-3.32-4.131C202.159 8.859 200.335 7 199.93 7c-.404 0-1.188 1.302-1.743 2.894M58.079 9.583c.048 1.165.285 1.402.604.605.289-.722.253-1.585-.079-1.917-.332-.332-.568.258-.525 1.312m138 0c.048 1.165.285 1.402.604.605.289-.722.253-1.585-.079-1.917-.332-.332-.568.258-.525 1.312M60.667 10.667c-.367.366-.667 1.131-.667 1.7 0 .626.466.567 1.183-.15.651-.651.951-1.416.667-1.7-.284-.285-.817-.217-1.183.15M193 10.941c0 .518.45 1.219 1 1.559.55.34 1-.084 1-.941S194.55 10 194 10s-1 .423-1 .941M65 12.443c0 1.414 4.458 7.683 4.779 6.721.213-.64 1.025-1.164 1.804-1.164 2.036 0 1.725-1.175-.991-3.75C68.529 12.294 65 11.154 65 12.443m119.22 1.997c-1.49 1.571-1.9 2.64-1.184 3.082.604.373 1.767-.154 2.586-1.172 1.398-1.738 1.424-1.718.433.334-1.304 2.699-1.341 3.611-.118 2.855.817-.505 4.063-6.251 4.063-7.193 0-1.299-3.904.114-5.78 2.094m-121.164.342c-.031 1.255-.694 3.809-1.473 5.675-1.262 3.019-1.242 3.46.183 4.007.91.349 2.347-.158 3.331-1.175 1.641-1.697 1.634-2.022-.128-6.289-1.337-3.24-1.873-3.861-1.913-2.218m-29.197 4.382a922.654 922.654 0 0 1-11.199 9.221c-6.445 5.188-7.497 7.604-5.016 11.521 5.914 9.342 30.131 22.016 34.746 18.185 1.807-1.499 10.801-28.442 10.094-30.235-.627-1.588-17.389-12.757-20.28-13.513-1.378-.36-3.897 1.095-8.345 4.821m22.358-2.161c-2.273 2.88-2.274 2.896-.25 3.98 1.789.957 2.033.791 2.033-1.389 0-1.362.45-2.754 1-3.094 1.165-.72 1.35-2.526.25-2.445-.413.031-1.777 1.357-3.033 2.948m133.505.454c-1.532 3.212-1.522 3.568.149 5.632 1.248 1.541 2.215 1.934 3.219 1.307 1.24-.774 1.22-1.539-.149-5.631l-1.585-4.736-1.634 3.428M195 14.941c0 .518.45 1.219 1 1.559.55.34 1 1.732 1 3.094 0 2.18.244 2.346 2.033 1.389 2.024-1.084 2.023-1.1-.25-3.98-2.331-2.953-3.783-3.745-3.783-2.062m7.654 5.309c-5.291 3.438-9.864 6.877-10.161 7.642-.58 1.498 8.024 27.716 9.833 29.962 3.718 4.613 30.713-9.228 35.301-18.1 2.056-3.975.954-6.345-5.287-11.369a912.975 912.975 0 0 1-11.097-9.135c-3.448-2.888-6.877-5.25-7.619-5.25s-5.678 2.813-10.97 6.25M165.2 20.2c-1.832 1.832-1.433 4.605.838 5.82 2.174 1.164 5.962.467 5.962-1.096 0-.517-.863-.402-1.919.257-1.511.944-2.255.92-3.5-.114-2.074-1.721-2.006-3.72.169-4.987.963-.561 1.278-1.033.7-1.05-.577-.016-1.59.51-2.25 1.17m3.883-.917c.23.156 1.317.943 2.417 1.75 1.85 1.357 1.897 1.336.628-.283-.755-.962-1.843-1.75-2.417-1.75-.574 0-.857.127-.628.283M35.2 24.2c-2.625 2.625-.612 6.8 3.277 6.8C41.43 31 45 28.233 45 25.943c0-1.069-.436-1.943-.969-1.943-.532 0-.741.591-.464 1.313.738 1.925-3.032 4.9-5.724 4.517-2.919-.415-3.68-3.745-1.261-5.514.99-.724 1.354-1.316.809-1.316s-1.531.54-2.191 1.2m138.3 2.335c-2.501 1.205-2.584 1.343-.5.834 2.834-.692 6.018-2.316 4.5-2.293-.55.008-2.35.664-4 1.459m32.905 4.715L204.5 33.5l2.25-1.905c1.238-1.048 2.25-2.06 2.25-2.25 0-.8-.805-.209-2.595 1.905m4.356.28c.345 1.803.035 2.47-1.144 2.47-.89 0-1.617.461-1.617 1.025 0 1.362 4.605 3.064 6.413 2.37.787-.302 2.478-.009 3.759.65 1.964 1.013 2.125.986 1.028-.173-.715-.754-2.74-1.379-4.5-1.388-2.983-.014-3.179-.229-2.898-3.159.166-1.728-.107-3.395-.606-3.704-.499-.308-.695.551-.435 1.909M43.5 31.535c-2.501 1.205-2.584 1.343-.5.834 2.834-.692 6.018-2.316 4.5-2.293-.55.008-2.35.664-4 1.459m19.977 1.537c-1.237 3.898-.807 6.873 2.468 17.099 2.494 7.785 3.975 10.636 7.645 14.718 6.654 7.401 31.47 21.861 35.385 20.619 2.749-.873 5.365 11.268 4.444 20.621-.666 6.752-.637 6.865 2.525 9.819 3.808 3.557 7.891 4.476 16.995 3.824 6.998-.5 15.098-3.945 18.739-7.969 1.53-1.69 1.568-2.261.338-5.103-.762-1.76-1.561-6.948-1.776-11.528-.415-8.826-.129-8.456-4.99-6.469-.687.281-1.25.125-1.249-.346.001-.471 3.452-2.409 7.67-4.305 11.185-5.029 23.153-12.48 28.529-17.761 4.99-4.903 7.408-9.89 10.732-22.138 1.688-6.217 1.803-7.818.747-10.404-1.244-3.049-1.254-3.034-4.589 6.639-1.837 5.332-3.06 9.976-2.716 10.32.344.344.626.025.626-.708s.244-1.09.542-.792c.919.919-6.557 12.807-10.589 16.839-3.609 3.609-29.341 17.232-30.451 16.121-.258-.258 4.94-2.948 11.553-5.977 11.78-5.396 18.768-10.325 22.933-16.174l2.029-2.85-2.984 1.127c-2.274.858-3.82.823-6.502-.147-1.936-.7-4.041-.95-4.68-.555-.694.429-.891.281-.489-.368 1.333-2.157-1.442-2.303-4.355-.229-4.968 3.538-19.216 9.685-24.122 10.407-2.538.374-5.463 1.322-6.5 2.107-1.037.785-2.335 1.432-2.885 1.437-.55.005.074-.816 1.386-1.825 3.259-2.506 1.076-3.67-2.964-1.58-1.806.933-4.153 1.367-5.53 1.021-1.351-.339-2.392-.156-2.392.419 0 .56.525 1.019 1.167 1.019.641 0 .966.2.722.445-.245.244-2.129.065-4.186-.399-4.027-.908-4.929-.121-6.755 5.896-.751 2.477-.779 2.484-.862.242-.047-1.273.41-3.242 1.016-4.375 1.788-3.34-.684-6.425-7.824-9.766-3.523-1.649-7.724-3.936-9.335-5.084-2.708-1.928-5.653-1.917-4.458.017.285.461-.385.601-1.489.313-1.104-.289-2.595-.037-3.315.561-1.461 1.212-6.431.602-8.4-1.032-.875-.726-1.281-.732-1.281-.021C74 59.3 84.388 68.983 90.439 72.12c3.54 1.836 6.283 3.491 6.096 3.679-.547.546-8.653-3.794-13.344-7.145-4.481-3.2-12.592-14.197-11.625-15.761.638-1.032-3.922-16.202-5.957-19.816l-1.364-2.423-.768 2.418M65.158 37c0 1.375.227 1.938.504 1.25.278-.687.278-1.812 0-2.5-.277-.687-.504-.125-.504 1.25m102.042-.8c-.66.66-1.2 1.646-1.2 2.191 0 .545.608.16 1.35-.856.891-1.217 2.084-1.655 3.502-1.284 1.183.309 1.899.154 1.59-.344-.798-1.291-3.827-1.122-5.242.293M39.571 37.571c-4.434 4.435 1.807 8.655 7.206 4.872C48.986 40.896 49.884 37 48.031 37c-.532 0-.684.74-.337 1.645C48.467 40.66 45.557 43 42.277 43c-3.079 0-3.971-2.576-1.743-5.037 2.108-2.33 1.303-2.657-.963-.392m149.508.012c.048 1.165.285 1.402.604.605.289-.722.253-1.585-.079-1.917-.332-.332-.568.258-.525 1.312M66.121 41c-.017.825.587 2.85 1.343 4.5 1.768 3.862 1.794 2.066.036-2.5-.741-1.925-1.362-2.825-1.379-2M166 40.781c0 1.416 4.384 2.669 6.498 1.858.826-.317 1.466-1.153 1.423-1.858-.062-1.003-.188-1.01-.583-.031-.642 1.591-4.565 1.623-6.138.05-.912-.912-1.2-.916-1.2-.019m22.079.802c.048 1.165.285 1.402.604.605.289-.722.253-1.585-.079-1.917-.332-.332-.568.258-.525 1.312m-1.455 3.956c-.965 2.514-.681 3.163.498 1.136.584-1.004.851-2.036.593-2.293-.257-.258-.749.263-1.091 1.157M116 45.718c-4.331 1.271-4.551 1.476-2.5 2.319 1.878.772 1.884.827.11.893-1.692.063-1.829.657-1.312 5.673.771 7.463 2.858 9.771 8.196 9.065 3.443-.455 3.76-.348 2.256.761-2.364 1.744-2.201 2.574.5 2.556 3.014-.021 4.358-1.074 4.444-3.485.04-1.1.536-4.243 1.103-6.984 1.105-5.336.768-6.947-1.288-6.158-.803.308-1.504-.584-1.861-2.37-.513-2.565-.968-2.856-4.361-2.787-2.083.043-4.462.275-5.287.517m4 2.206c0 .474.675 1.121 1.5 1.438.825.316 1.5.187 1.5-.286 0-.474-.675-1.121-1.5-1.438-.825-.316-1.5-.187-1.5.286m-51 2.017c0 .518.445 1.216.989 1.552.566.35.734-.051.393-.941C69.717 48.82 69 48.503 69 49.941m45.714 3.075c.796 3.041 1.999 3.266 2.533.472.362-1.892.052-2.488-1.292-2.488-1.28 0-1.622.556-1.241 2.016M127.5 52c-.34.55-.141 1 .441 1S129 52.55 129 52s-.198-1-.441-1-.719.45-1.059 1m-9.284 4.845c-1.742 1.106-.384 4.333 1.66 3.944 1.978-.377 2.852-4.796.944-4.774-.726.009-1.898.382-2.604.83M84 60.378c0 .207.787.995 1.75 1.75 1.586 1.243 1.621 1.208.378-.378C84.821 60.084 84 59.555 84 60.378m83 2.744c-3.485 3.055-3.486 3.059-.28.927 1.771-1.178 3.485-2.571 3.809-3.096.964-1.56.164-1.069-3.529 2.169m-79 .256c0 .207.787.995 1.75 1.75 1.586 1.243 1.621 1.208.378-.378C88.821 63.084 88 62.555 88 63.378m72.441 4.177c-1.864 1.494-1.852 1.512.309.465 1.238-.6 2.25-1.3 2.25-1.555 0-.765-.519-.544-2.559 1.09M155 70.5c-1.375.786-2.024 1.445-1.441 1.465.582.019 1.932-.626 3-1.433 2.469-1.868 1.68-1.884-1.559-.032m-33 .667c0 .458 1.2.833 2.667.833 1.466 0 2.357-.309 1.979-.687-1.005-1.006-4.646-1.12-4.646-.146m-24 5.076c1.199 1.239 11 5.716 10.996 5.024-.002-.422-2.124-1.667-4.716-2.767-6.179-2.622-6.875-2.872-6.28-2.257m27.761 9.73c-1.602 1.26-2.866 1.666-3.25 1.045-1.073-1.736-4.386-1.121-5.536 1.029-2.329 4.351 5.937 14.741 9.811 12.331 2.258-1.404 6.112-7.122 6.89-10.223 1.317-5.246-3.396-7.736-7.915-4.182m-12.866 125.829c-5.487 4.903-3.818 13.737 3.095 16.379 3.651 1.396 9.221.137 8.797-1.988-.256-1.289-1.195-1.618-3.928-1.38-4.487.391-6.859-1.775-6.859-6.262 0-4.217 1.938-5.796 6.62-5.392 3.917.337 5.858-1.608 3.252-3.259-2.849-1.805-7.785-.949-10.977 1.902M131 218.368c0 5.233.399 9.761.887 10.062 1.215.751 2.849-1.426 3.267-4.352.524-3.665 2.278-3.532 4.945.373 1.32 1.935 2.981 3.742 3.689 4.016 2.672 1.036 2.296-2.588-.69-6.649l-3.103-4.218 3.003-3.098c1.651-1.703 3.002-3.638 3.002-4.3 0-2.314-2.628-1.167-6.547 2.858l-3.953 4.061-.5-3.801c-.339-2.573-1.065-3.908-2.25-4.134-1.567-.298-1.75.66-1.75 9.182m32.58-7.456c-1.019 1.125-1.596 3.068-1.405 4.727.267 2.311 1.124 3.11 4.781 4.456 2.451.902 4.625 2.149 4.833 2.772.608 1.825-2.832 2.555-6.145 1.305-3.577-1.35-5.665-.108-3.733 2.221 3.302 3.979 12.573 2.512 13.749-2.174.884-3.521-.654-5.496-5.502-7.064-5.91-1.911-5.758-4.646.212-3.828 5.151.706 6.251.016 3.977-2.496-2.253-2.49-8.483-2.443-10.767.081m18.633 7.789.287 9.799 5 .26c2.75.143 5.62-.144 6.378-.638 2.295-1.496.245-3.122-3.937-3.122-3.537 0-3.941-.256-3.941-2.5 0-1.375.338-2.447.75-2.382 3.112.492 6.25-.321 6.25-1.618 0-1.048-1.056-1.5-3.5-1.5-2.799 0-3.5-.389-3.5-1.943 0-1.57.814-2.001 4.25-2.25 2.974-.215 4.25-.757 4.25-1.807 0-1.143-1.498-1.571-6.287-1.799l-6.287-.298.287 9.798m17.313-8.743c-1.012 1.638.368 3.042 2.991 3.042 2.3 0 2.411.318 2.691 7.75.23 6.092.613 7.75 1.792 7.75 1.178 0 1.562-1.65 1.791-7.688.285-7.531.346-7.693 3-8 1.602-.184 2.709-.925 2.709-1.812 0-1.167-1.593-1.565-7.165-1.792-4.212-.172-7.43.137-7.809.75M91.75 216.054c-2.237 3.973-2.202 5.227.21 7.41 4.49 4.063 10.52-1.589 7.793-7.306-1.9-3.984-5.79-4.035-8.003-.104" fill="#1976D2" fill-rule="evenodd"/><path fill-opacity=".432" d="m53.6 3.434-9.899 3.329-2.16-2.511-2.16-2.511L26.44 3.477C10.298 5.641 6.898 6.751 5.126 10.434c-1.189 2.471-1.146 3.674.32 8.948 2.184 7.853 7.765 18.44 12.644 23.982 5.912 6.717 25.275 17.542 31.505 17.612 3.103.035 5.12-2.783 7.915-11.057 3.708-10.981 3.581-10.743 4.468-8.419.528 1.386.751.619.725-2.5-.02-2.475.315-6.147.746-8.16.657-3.069.441-3.953-1.333-5.472-1.164-.997-2.123-2.5-2.131-3.34-.013-1.293-.154-1.309-.916-.106-.636 1.006-.192 1.98 1.515 3.323 1.329 1.045 2.421 2.655 2.427 3.578.006.922-2.091 7.887-4.66 15.477-3.117 9.21-5.3 14.138-6.564 14.814-4.459 2.386-25.271-8.206-32.661-16.624-4.254-4.844-4.092-7.99.624-12.113C30.673 20.828 39.691 14 41.38 14c1.047 0 4.765 1.807 8.262 4.015C53.139 20.224 56 21.805 56 21.528c0-.277-1.8-1.639-4-3.028s-4-2.987-4-3.551c0-.565 1.738-2.89 3.863-5.168l3.863-4.141 1.235 3.743c1.086 3.29 1.013 4.007-.606 5.93-1.544 1.835-1.399 1.797.902-.237C59.815 12.815 61.219 9.129 59 10.5c-.55.34-1-.084-1-.941 0-1.757.846-1.943 2.908-.637 1.198.758 1.16 1.414-.25 4.386-1.974 4.161-2.123 5.557-.408 3.842.688-.687 1.25-1.752 1.25-2.367 0-2.442 2.299-1.683 3.471 1.146.684 1.653 1.967 3.582 2.85 4.288 1.117.892.932.124-.608-2.524C65.996 15.599 65 13.461 65 12.943c0-1.692 3.646-.991 5.5 1.057.995 1.1 2.169 2 2.607 2 .439 0-.245-1.125-1.519-2.5-1.523-1.642-3.393-2.5-5.453-2.5C63.637 11 63 10.582 63 8.941c0-1.132.45-1.781 1-1.441.55.34 1-.084 1-.941 0-2.236 1.633-1.921 3.443.664C69.299 8.445 70 8.985 70 8.423c0-.563-.54-1.563-1.2-2.223-3.04-3.04 5.369.142 9.7 3.671 1.967 1.602 1.97 1.594.179-.529-1.002-1.186-3.97-3.081-6.596-4.211-2.626-1.129-5.349-2.746-6.051-3.592C64.441-.378 65.34-.515 53.6 3.434m135.409-1.945c-.7.844-3.239 2.404-5.641 3.466C180.966 6.018 179 7.149 179 7.469c0 .321 1.328-.104 2.95-.943 3.679-1.903 6.005-2.081 4.25-.326-.66.66-1.2 1.61-1.2 2.111 0 .501.827-.111 1.838-1.359 1.788-2.208 4.907-1.967 3.524.272-.401.647-.206.797.483.371.73-.451 1.155.044 1.155 1.346 0 1.682-.634 2.059-3.465 2.059-2.369 0-3.783.595-4.472 1.882-1.802 3.367-3.984 3.27-8.774-.388C172.772 10.572 169.924 9 168.961 9 165.621 9 142 29.17 142 32.022c0 .414 1.463 2.923 3.25 5.576 2.902 4.308 8.543 9.578 15.772 14.738l2.478 1.768-2.131 1.698c-1.173.934-2.973 2.27-4 2.968-1.581 1.075-1.483 1.093.631.122 1.375-.632 3.258-1.809 4.185-2.617 1.49-1.297 2.323-1.228 7.197.595 4.348 1.627 6.128 1.848 8.422 1.048 3.523-1.228 4.093-2.316 8.842-16.88l3.738-11.463 1.418 3.463c1.136 2.775 1.194 4.435.291 8.362-.62 2.695-.923 5.103-.674 5.352.248.249.762-1.202 1.142-3.225.886-4.721 1.602-3.82 4.858 6.108 2.77 8.444 4.884 11.382 8.16 11.341 6.077-.075 25.511-10.999 31.331-17.612 4.879-5.542 10.46-16.129 12.644-23.982 1.471-5.292 1.512-6.474.31-8.988-1.721-3.597-5.18-4.717-21.751-7.04l-12.387-1.737-2.229 2.591-2.229 2.591-8.384-2.794C190.17-.233 190.403-.191 189.009 1.489M61.5 1.724c-3.981.978-6.387 4.943-3 4.943.825 0 1.5-.45 1.5-1s.279-.722.619-.381c.341.34 1.254-.016 2.029-.791.782-.782 2.176-1.123 3.131-.765 1.504.563 1.548.432.349-1.043-.755-.928-1.655-1.635-2-1.571-.346.064-1.528.337-2.628.608m127.372.963c-1.199 1.475-1.155 1.606.349 1.043.955-.358 2.349-.017 3.131.765.775.775 1.688 1.131 2.029.791.34-.341.619-.169.619.381s.675 1 1.5 1c2.804 0 1.515-2.763-1.968-4.218-4.275-1.786-4.003-1.798-5.66.238M52 4.973c-7.589 2.431-8.057 2.808-6.831 5.499.634 1.39 1.436 2.528 1.783 2.528.348 0 2.619-2.025 5.048-4.5 4.478-4.563 4.478-4.962 0-3.527m147.217-.423c1.071 1.072-1.062 4.443-2.482 3.923-1.927-.706-4.093 1.152-3.412 2.926.338.881 1.064 1.601 1.614 1.601s.77-.6.489-1.333c-.282-.734.139-1.334.936-1.334.822 0 1.218.598.916 1.385-.292.761.538 2.598 1.845 4.083L201.5 18.5l-2.564-2.25c-3.218-2.823-4.263-2.856-3.39-.104.596 1.876.491 1.97-.837.75-.835-.768-1.448-1.79-1.363-2.271.085-.481-.296-1.04-.846-1.241-.55-.201-1.937 1.36-3.082 3.47l-2.082 3.836 2.366 2.749c1.929 2.244 2.635 2.526 3.831 1.533.807-.669 1.474-1.949 1.482-2.844.013-1.353.168-1.387.916-.206.636 1.006.192 1.98-1.515 3.323-1.329 1.045-2.416 2.679-2.416 3.631 0 1.791 5.456 18.43 8.472 25.836.943 2.317 2.533 4.472 3.534 4.79 4.61 1.463 21.692-7.313 30.206-15.519 6.139-5.918 6.37-8.944 1.038-13.606C224.327 20.828 215.309 14 213.62 14c-1.047 0-4.765 1.807-8.262 4.015-3.497 2.209-6.358 3.79-6.358 3.513 0-.277 1.8-1.639 4-3.028s4-2.968 4-3.51c0-.541-1.667-2.898-3.704-5.237L199.592 5.5l4.186 3.935c2.302 2.164 4.358 3.739 4.568 3.5.211-.239.917-1.461 1.57-2.715 1.084-2.083.902-2.394-2.115-3.617-4.238-1.717-9.508-2.977-8.584-2.053m-23.345 5.2c-1.243 1.586-1.208 1.621.378.378C177.916 8.821 178.445 8 177.622 8c-.207 0-.995.787-1.75 1.75m-16.092 6.898C148.493 25.711 144 30.099 144 32.059c0 4.591 13.393 17.066 24.202 22.543 5.612 2.844 8.91 3.037 11.07.648 1.93-2.135 10.959-29.067 10.172-30.34C188.066 22.68 170.335 10 168.596 10c-.295 0-4.262 2.992-8.816 6.648m24.213-2.141c-2.308 2.457-2.316 2.537-.424 3.968 1.062.804 2.171 1.476 2.465 1.493.745.045 3.966-5.537 3.966-6.872 0-1.989-3.61-1.141-6.007 1.411M63.491 46.5c1.246 6.603 4.953 14.723 8.63 18.9 4.256 4.836 15.299 12.285 26.728 18.03C109.472 88.771 111 89.272 111 87.416c0-.844-.466-1.246-1.036-.894-1.436.887-18.001-7.321-27.222-13.489-9.604-6.423-13.318-11.111-16.941-21.381-1.581-4.484-2.621-6.802-2.31-5.152m47.66 6.35c-.145 7.047-.017 7.484 3.099 10.598 1.787 1.787 3.105 3.992 2.927 4.9-.178.909.159 1.652.75 1.652.59 0 1.073-.702 1.073-1.559s.445-1.284.989-.948c.566.35.734-.051.393-.941-.328-.854-1.173-1.552-1.878-1.552-.705 0-2.318-.839-3.585-1.864-1.917-1.553-2.412-3.183-2.96-9.75l-.657-7.886-.151 7.35M189.2 51.7c-1.48 4.822-.764 5.538.8.8.66-1.999 1.005-3.828.767-4.066-.237-.238-.943 1.232-1.567 3.266m-73.533.967c-.932.932-.832 2.333.166 2.333.459 0 .834-.675.834-1.5 0-1.699-.073-1.76-1-.833M91 54.378c0 .207.787.995 1.75 1.75 1.586 1.243 1.621 1.208.378-.378C91.821 54.084 91 53.555 91 54.378m27.723 2.508c-1.525.566-1.588.916-.447 2.477 1.224 1.673 1.437 1.688 2.684.185 1.641-1.976.28-3.595-2.237-2.662M95 57.494c0 .673 10.122 5.717 10.571 5.268.205-.205-2.089-1.58-5.099-3.057C97.462 58.229 95 57.234 95 57.494m89.815 4.069c-3.533 5.726-13.5 12.954-28.315 20.534-6.6 3.377-10.783 5.858-9.296 5.514l2.704-.626.35 6.757.35 6.758.196-7.233.196-7.233 5.25-2.642c9.354-4.706 18.578-10.488 23.152-14.514 4.151-3.655 9.297-10.541 8.462-11.325-.2-.188-1.572 1.616-3.049 4.01M149 62.5c-1.375.786-2.05 1.429-1.5 1.429.55 0 2.125-.643 3.5-1.429s2.05-1.429 1.5-1.429c-.55 0-2.125.643-3.5 1.429m-37.921 29.083c.048 1.165.285 1.402.604.605.289-.722.253-1.585-.079-1.917-.332-.332-.568.258-.525 1.312m1.132 11.976c-.152 7.233.175 10.587 1.163 11.938 1.229 1.681.872 2.572-3.386 8.441C98.729 139.457 86.004 161.724 77.951 180c-4.205 9.542-10.937 26.889-10.946 28.204-.003.388 2.997.838 6.665 1 6.822.303 10.025 2.356 4.639 2.974-2.78.319-2.812.402-3.101 8.072-.222 5.88-.634 7.75-1.708 7.75-1.074 0-1.486-1.87-1.708-7.75l-.292-7.75-3.055-.299c-3.04-.297-3.066-.257-5.577 8.63l-2.522 8.928 5.077 1.142c2.792.628 6.994 2.233 9.337 3.568l4.259 2.426 2.411-4.697c1.326-2.584 3.085-5.598 3.91-6.698 1.486-1.983 1.521-1.979 4.104.447 6.027 5.662 14.556 1.317 14.556-7.414 0-3.636-.508-4.783-3.077-6.944-1.692-1.424-3.496-2.589-4.009-2.589-.513 0 1.33-4.507 4.094-10.016 2.884-5.747 5.664-13.046 6.522-17.125 1.965-9.345 3.183-11.694 11.542-22.27 3.874-4.901 7.797-10.301 8.718-12 1.674-3.086 1.676-3.077 2.34 8.05 1.008 16.921 4.348 26.634 11.535 33.551 9.241 8.893 19.329 7.68 31.33-3.767 7.241-6.907 13.01-15.602 18.015-27.155l3.799-8.768-2.626-4.864c-1.444-2.675-4.213-5.966-6.154-7.313l-3.529-2.449-11 11.449-11 11.448-.161-11.635c-.126-9.139-.74-13.782-2.861-21.636-1.485-5.5-3.037-12.025-3.449-14.5-.412-2.475-1.275-5.625-1.917-7l-1.168-2.5.621 2.5c1.78 7.158 1.709 7.591-1.726 10.494-9.905 8.371-25.661 9.734-33.759 2.92-2.936-2.47-3.019-2.79-3.335-12.724l-.323-10.19-.211 10.059M49.223 210.557C48 211.413 47 213.143 47 214.402c0 2.571 2.837 5.598 5.247 5.598 2.923 0 4.753 1.196 4.753 3.107 0 1.491-.731 1.893-3.441 1.893-1.893 0-3.724-.457-4.069-1.016-.806-1.304-2.49-.284-2.49 1.508 0 1.63 3.316 2.832 7.487 2.713 3.724-.106 6.839-3.587 5.901-6.594-.808-2.595-1.85-3.324-6.638-4.65-2.12-.587-3.75-1.665-3.75-2.48 0-1.932 4.313-2.919 6.841-1.566 2.671 1.43 3.159 1.371 3.159-.38 0-3.355-6.982-4.637-10.777-1.978m66.134-.565c-5.079 2.049-7.15 10.61-3.607 14.911 3.159 3.835 12.75 4.641 12.75 1.072 0-1.061-1.064-1.359-4.075-1.142-4.438.321-5.853-.707-6.94-5.038-.53-2.112-.116-3.255 1.919-5.29 2.172-2.172 3.167-2.489 6.096-1.939 3.872.726 4.813-.793 1.566-2.531-2.283-1.222-4.754-1.236-7.709-.043m16.282-.298c-.351.352-.639 4.614-.639 9.473 0 7.185.28 8.833 1.5 8.833.986 0 1.5-.986 1.5-2.878 0-1.582.626-3.397 1.391-4.031 1.11-.922 2.035-.34 4.584 2.877 3.046 3.846 6.025 5.292 6.025 2.926 0-.608-1.35-2.811-3-4.894s-3-4.14-3-4.571c0-.431 1.463-2.017 3.25-3.524 2.623-2.212 3.008-2.989 1.994-4.029-1.019-1.045-2.2-.36-6.25 3.63L134 218.425v-4.154c0-3.982-1.006-5.932-2.361-4.577m32.584.863c-1.223.856-2.223 2.586-2.223 3.845 0 2.571 2.837 5.598 5.247 5.598 2.923 0 4.753 1.196 4.753 3.107 0 1.491-.731 1.893-3.441 1.893-1.893 0-3.743-.489-4.113-1.087-.483-.782-.979-.78-1.766.007-1.809 1.809 1.606 4.28 5.916 4.28 3.868 0 7.404-2.741 7.404-5.739 0-2.031-2.932-4.497-6.098-5.131-3.778-.755-5.825-3.118-3.838-4.43 1.457-.961 4.013-.755 7.186.578 2.487 1.046 2.319-2.103-.184-3.443-2.773-1.484-6.275-1.277-8.843.522m18.489-.935c-.392.391-.712 4.686-.712 9.545V228h6c4.667 0 6-.333 6-1.5 0-1.111-1.167-1.5-4.5-1.5-4.133 0-4.5-.204-4.5-2.5 0-2.25.4-2.5 4-2.5 2.889 0 4-.417 4-1.5 0-1.088-1.119-1.5-4.07-1.5-3.648 0-4.036-.233-3.75-2.25.267-1.877 1.036-2.302 4.633-2.561 5.948-.428 4.904-2.607-1.43-2.984-2.728-.162-5.28.025-5.671.417m17.021-.022c-1.161 1.162.275 2.4 2.784 2.4 2.3 0 2.411.319 2.691 7.739.243 6.438.586 7.796 2.042 8.073 1.55.296 1.75-.589 1.75-7.739V212h3.083c2.021 0 2.941-.431 2.67-1.25-.445-1.346-13.801-2.369-15.02-1.15m-107.665 5.304C88.523 219.882 89.999 225 94.978 225c5.378 0 7.96-7.062 4.022-11-2.741-2.741-4.5-2.511-6.932.904M59 234c1.958 1.266 3.282 1.266 2.5 0-.34-.55-1.379-.993-2.309-.985-1.457.014-1.484.15-.191.985m-1 2c0 .55.702 1 1.559 1s1.281-.45.941-1c-.34-.55-1.041-1-1.559-1s-.941.45-.941 1m-1.527 2.044c-.325.526.336.956 1.468.956 2.415 0 2.658-.556.591-1.349-.807-.31-1.734-.133-2.059.393M49 246.969c0 .532.648.72 1.439.416 2.628-1.008 12.519 1.708 15.571 4.277 1.644 1.384 2.99 2.096 2.99 1.582 0-1.477-3.248-4.032-7.254-5.706-4.075-1.702-12.746-2.09-12.746-.569" fill="#1976D2" fill-rule="evenodd"/><path fill-opacity=".978" d="M19.818 4.89C6.367 7.002 4.611 8.29 5.217 15.604c.838 10.105 11.776 28.852 19.457 33.348 3.167 1.854 2.75 1.262-2.424-3.44-5.304-4.82-6.25-6.189-6.25-9.046 0-2.997.906-4.118 8.25-10.212 17.565-14.575 16.505-13.931 19.823-12.027 3.564 2.045 3.568 1.717.073-5.227l-2.769-5.5-5.438-.143c-2.992-.079-10.246.611-16.121 1.533m192.995.36C211.366 7.839 208 15.051 208 15.563c0 .189 1.317-.412 2.927-1.336 3.318-1.904 2.258-2.548 19.823 12.027 7.283 6.043 8.25 7.232 8.25 10.145 0 2.6-1.006 4.308-4.75 8.065-2.613 2.621-3.773 4.267-2.578 3.658 3.578-1.826 8.168-8.086 12.949-17.658 6.586-13.19 7.147-21.145 1.642-23.284C243.017 5.919 223.12 3 217.771 3c-2.798 0-4.007.549-4.958 2.25M62 6.035c-1.99 1.586-2.092 1.847-.5 1.284 2.18-.771 5.15-3.333 3.821-3.297-.451.012-1.946.918-3.321 2.013m128.179-.729c.726.718 2.221 1.624 3.321 2.013 1.592.563 1.49.302-.5-1.284-2.79-2.222-4.878-2.761-2.821-.729M62 10c0 1.1.408 2 .906 2 .499 0 .671-.9.384-2-.288-1.1-.696-2-.907-2-.21 0-.383.9-.383 2m129.71 0c-.287 1.1-.115 2 .384 2 .498 0 .906-.9.906-2s-.173-2-.383-2c-.211 0-.619.9-.907 2m-29.838 3.75c-1.243 1.586-1.208 1.621.378.378 1.666-1.307 2.195-2.128 1.372-2.128-.207 0-.995.787-1.75 1.75m-5.467 4.5L154.5 20.5l2.25-1.905c1.238-1.048 2.25-2.06 2.25-2.25 0-.8-.805-.209-2.595 1.905m-5.481 4.5L148.5 25.5l2.75-2.424c2.57-2.266 3.209-3.076 2.424-3.076-.179 0-1.416 1.238-2.75 2.75m-5.92 4.746c-1.29 1.373-2.156 2.664-1.925 2.868.232.205 1.468-.918 2.747-2.496 2.863-3.53 2.359-3.758-.822-.372M143 33.941c0 .518.445 1.216.989 1.552.566.35.734-.051.393-.941-.665-1.732-1.382-2.049-1.382-.611m6.5 7.915c2.75 2.917 6.35 6.24 8 7.385 3.452 2.396 3.354 2.294-6-6.275-6.463-5.92-6.616-6.006-2-1.11m31.29 11.927-1.71 3.717 1.96-2.361c1.078-1.298 1.96-2.986 1.96-3.75 0-2.057-.325-1.705-2.21 2.394M164 53.49c0 .685 6.123 3.72 6.58 3.263.217-.217-1.174-1.143-3.093-2.058-1.918-.914-3.487-1.456-3.487-1.205m-44.75 3.172c-1.758.71-1.562 3.338.25 3.338.833 0 1.5-.889 1.5-2 0-1.1-.112-1.964-.25-1.921-.138.043-.812.306-1.5.583m54 1.027c.963.252 2.537.252 3.5 0 .963-.251.175-.457-1.75-.457s-2.713.206-1.75.457m-24.75 57.256c-8.6 6.044-21.05 7.805-29.158 4.123l-4.158-1.888-6.455 9.16c-15.617 22.16-30.154 50.025-38.638 74.062L67.056 209h7.045c6.17 0 7.004.218 6.714 1.75-.2 1.055-1.42 1.876-3.074 2.066-2.708.313-2.741.405-2.741 7.584 0 7.761-.526 9.239-2.658 7.469-.881-.731-1.342-3.439-1.342-7.875 0-6.418-.127-6.785-2.5-7.239-2.346-.448-2.655.011-5 7.435-1.375 4.352-2.5 8.289-2.5 8.748 0 .459 1.913 1.123 4.25 1.474 2.338.352 6.208 1.753 8.602 3.114S78.35 236 78.529 236c.178 0 1.699-2.363 3.38-5.25 4.986-8.567 4.52-8.23 7.41-5.34 5.645 5.645 14.681 1.693 14.681-6.421 0-3.938-3.098-8.989-5.514-8.989-2.684 0-2.305-1.745 2.485-11.441 2.843-5.755 5.36-12.564 6.077-16.441 1.581-8.542 3.79-12.825 11.666-22.618 3.538-4.4 7.401-9.8 8.583-12l2.149-4 .753 10.882c1.172 16.944 4.206 26.454 10.854 34.025 12.7 14.465 33.778 2.975 47.525-25.907 2.356-4.95 4.558-10.125 4.894-11.5.751-3.081-3.778-10.658-8.293-13.873l-3.059-2.178-10.81 11.902-10.81 11.901-.582-13.626c-.408-9.568-1.254-16.064-2.841-21.811-3.148-11.398-3.618-11.856-8.577-8.37M129.3 137c0 3.025.187 4.262.416 2.75.229-1.512.229-3.988 0-5.5s-.416-.275-.416 2.75m29.836 25.668c-.075 1.193-.395 2.993-.712 4-.544 1.734-.514 1.737.566.053.628-.978.948-2.778.712-4-.429-2.219-.43-2.219-.566-.053M96.5 169c2.749 1.181 4.328 1.181 2.5 0-.825-.533-2.175-.945-3-.914-.989.036-.819.347.5.914m-5.5.905c0 .83 4.102 2.326 4.711 1.718.163-.164-.829-.812-2.207-1.439-1.377-.628-2.504-.753-2.504-.279m-40.662 40.094c-4.653 1.876-3.657 8.478 1.441 9.549 5.852 1.229 7.673 3.604 4.191 5.468-1.637.876-2.855.86-5.093-.067-3.526-1.46-5.163-.362-2.434 1.633C52.905 229.844 60 227.66 60 223.024c0-3.228-.885-4.048-6-5.556-2.465-.727-3.5-1.614-3.5-3 0-1.537.657-1.951 3-1.892 1.65.042 3.619.267 4.375.5 2.959.912 2.025-1.915-.979-2.962-3.667-1.279-3.673-1.279-6.558-.115m65.925.196c-6.348 1.677-8.217 10.005-3.34 14.882 2.984 2.984 7.97 3.911 10.934 2.033 1.934-1.226-.198-2.314-3.104-1.584-1.555.39-3.247-.127-5.046-1.542-5.352-4.21-2.119-12.482 4.613-11.804 1.749.176 3.284-.13 3.411-.68.353-1.529-3.845-2.262-7.468-1.305m23.694 3.348c-2.405 2.452-4.73 4.457-5.165 4.457-.436 0-.792-1.8-.792-4 0-2.934-.41-4-1.539-4-1.289 0-1.492 1.407-1.25 8.669.194 5.831.698 8.805 1.539 9.084.812.269 1.25-.624 1.25-2.547 0-1.629.678-3.524 1.506-4.211 1.515-1.258 2.152-.733 7.092 5.848.604.804 1.63 1.134 2.279.733.822-.508.125-2.167-2.299-5.469l-3.479-4.74 3.558-3.558c1.957-1.957 3.135-3.82 2.616-4.14-.518-.32-2.91 1.423-5.316 3.874m25.381-3.544c-4.909 1.979-3.637 8.35 1.904 9.535 5.741 1.228 7.299 3.571 3.667 5.515-1.562.836-2.833.811-5.032-.1-3.526-1.46-5.163-.362-2.434 1.633 4.462 3.262 11.557 1.078 11.557-3.558 0-3.228-.885-4.048-6-5.556-4.509-1.329-4.961-4.8-.69-5.29 1.546-.177 3.388.156 4.092.741 1.22 1.012 2.598.521 2.598-.925 0-.841-4.674-3.016-6.297-2.931-.662.035-2.176.456-3.365.936m16.873 8.751.289 8.75 5.851.303c4.458.231 5.749-.007 5.422-1-.237-.72-2.295-1.441-4.601-1.61-3.642-.269-4.172-.61-4.172-2.69 0-2.031.553-2.428 3.75-2.693 2.063-.17 3.75-.76 3.75-1.31s-1.687-1.14-3.75-1.31c-3.224-.267-3.75-.653-3.75-2.75 0-2.225.396-2.44 4.5-2.44 2.475 0 4.5-.45 4.5-1 0-.556-2.68-1-6.039-1h-6.039l.289 8.75M200 211c0 .55 1.35 1 3 1h3v8.083c0 6.021.319 7.978 1.25 7.67.819-.271 1.351-3.056 1.542-8.083.282-7.4.379-7.67 2.75-7.67 1.352 0 2.458-.45 2.458-1 0-.571-3-1-7-1s-7 .429-7 1m-108.798 4.572c-2.627 4.054-2.244 6.699 1.307 9.026 1.926 1.262 2.78 1.321 4.674.323 3.081-1.623 3.783-2.826 3.802-6.516.017-3.431-2.578-6.412-5.564-6.393-1.093.007-2.911 1.541-4.219 3.56" fill="#1976D2" fill-rule="evenodd"/></svg>